<svg xmlns="http://www.w3.org/2000/svg" width="200" height="200" aria-hidden="true" data-bbox="30.439 30.57 138.859 138.86" data-type="color" viewBox="30.439 30.57 138.859 138.86"><defs><style>#comp-jqev8emt svg [data-color=&quot;1&quot;]{fill:#B2BECF}</style></defs><path fill="#B2BECF" d="M30.439 30.57v138.86h138.859V30.57H30.439zm130.859 8v37.907h-18.755V53.198h-28.811v23.279H86.246V53.198H57.435v23.279H38.439V38.57h122.859zm-26.755 84.508h-12.811v-15.386h12.811v15.386zm-20.81-23.386v23.386H86.246V99.692H57.435v23.386H38.439v-38.6h122.859v38.601h-18.755V99.692h-28.81zm-35.487 23.386H65.435v-15.386h12.811v15.386zm0-46.6H65.435v-15.28h12.811v15.28zm56.297 0h-12.811v-15.28h12.811v15.28zM38.439 161.43v-30.352h122.859v30.352H38.439z" data-color="1"/></svg>