<svg xmlns="http://www.w3.org/2000/svg" width="200" height="200" aria-hidden="true" data-bbox="50.836 31.854 98.328 126.783" data-type="color" viewBox="50.836 31.854 98.328 126.783"><defs><style>#comp-jpti7e10 svg [data-color=&quot;1&quot;]{fill:#e50e0b}</style></defs><path fill="#e50e0b" d="M100 31.854c-27.109 0-49.164 22.055-49.164 49.164 0 26.254 44.393 72.663 46.282 74.626l2.882 2.993 2.882-2.993c1.89-1.963 46.282-48.372 46.282-74.626 0-27.109-22.055-49.164-49.164-49.164zm0 115.181c-13.717-14.854-41.164-48.246-41.164-66.017 0-22.698 18.466-41.164 41.164-41.164s41.164 18.466 41.164 41.164c0 17.771-27.447 51.164-41.164 66.017z" data-color="1"/><path fill="#e50e0b" d="M100 62.648c-10.129 0-18.37 8.241-18.37 18.37s8.241 18.37 18.37 18.37 18.37-8.241 18.37-18.37-8.241-18.37-18.37-18.37zm0 28.741c-5.718 0-10.37-4.652-10.37-10.37s4.652-10.37 10.37-10.37 10.37 4.652 10.37 10.37-4.652 10.37-10.37 10.37z" data-color="1"/></svg>