<svg xmlns="http://www.w3.org/2000/svg" width="200" height="200" aria-hidden="true" data-bbox="51.833 31.9 97.838 125.115" data-type="color" viewBox="51.833 31.9 97.838 125.115"><defs><style>#comp-jpti7dst svg [data-color=&quot;1&quot;]{fill:#e50e0b}</style></defs><path fill="#e50e0b" d="m136.096 121.719-20.936 3.328-.006-.05-.257.091c-1.036.071-10.83.05-25.424-22.229C74.939 80.676 78.791 71.72 79.294 70.745l11.577-18.12L77.294 31.9l-16.268 4.658-.759.818c-.985 1.062-23.737 26.599 9.889 77.929 23.644 36.092 46.823 41.71 58.966 41.71 5.115 0 8.273-.997 8.68-1.134l1.084-.364 10.785-13.075-13.575-20.723zm-1.825 26.823c-5.221 1.079-30.369 3.675-57.422-37.621C49.675 69.44 62.345 47.888 65.512 43.596l8.319-2.383 7.512 11.467-8.568 13.41c-1.437 2.05-7.883 13.849 10.004 41.154 17.916 27.347 31.326 26.17 33.736 25.688l15.725-2.5 7.511 11.466-5.48 6.644z" data-color="1"/></svg>